<svg width="80" height="80" viewBox="0 0 80 80" fill="none" xmlns="http://www.w3.org/2000/svg">
<rect width="80" height="80" fill="#2F2F39"/>
<path d="M76.581 61.5399C78.2983 64.5099 78.4647 67.6329 77.0375 70.1015C75.6125 72.5723 72.8244 73.9872 69.3877 73.9872H62.9111C62.9879 72.7847 63.0391 71.5716 63.0391 70.3501C63.0391 68.9819 62.9751 67.6308 62.8813 66.2839L67.1414 66.2796C68.1888 66.2796 69.0357 65.4319 69.0357 64.3867C69.0357 64.0595 68.9525 63.7557 68.8074 63.4838L41.6554 16.4842C41.3333 15.9128 40.7168 15.5261 40.0107 15.5261C39.3238 15.5261 38.7222 15.8915 38.3894 16.4396L34.0781 23.9029C47.1805 33.7392 55.9887 48.978 57.194 66.2796C57.2879 67.6244 57.3519 68.9756 57.3519 70.3458C57.3519 71.5674 57.3007 72.7783 57.226 73.9829H36.0748C36.19 72.7847 36.2561 71.5738 36.2561 70.3458C36.2561 68.9713 36.1751 67.6159 36.0257 66.2796C34.9805 56.7577 30.3001 48.3194 23.4076 42.3645L20.4381 47.5014C25.6453 52.3282 29.1993 58.9013 30.1657 66.2796C30.3406 67.6116 30.4388 68.9671 30.4388 70.3458C30.4388 71.5738 30.3577 72.789 30.219 73.9829H10.6123C7.17564 73.9829 4.38747 72.5659 2.96246 70.0951C1.53531 67.6265 1.70171 64.5057 3.41898 61.5335L7.44443 54.663C9.75261 55.8973 11.8261 57.5056 13.5946 59.4091L11.1947 63.4796C11.0518 63.7494 10.9664 64.0553 10.9664 64.3825C10.9664 65.4277 11.8133 66.2732 12.8608 66.2732L22.3708 66.2775C21.573 61.7375 19.4696 57.6415 16.4574 54.3975C14.6826 52.4918 12.609 50.8794 10.3009 49.645L20.9202 31.2705C23.1814 32.5303 25.3211 33.975 27.3221 35.5938C36.4737 42.9891 42.6538 53.911 43.7737 66.2754H49.4652C48.3048 51.8205 41.0112 39.0737 30.187 30.6353C28.1583 29.0547 26.0101 27.6228 23.7531 26.3609L32.8173 10.6781C34.5325 7.70595 37.1564 6 40.0107 6C42.8628 6 45.4846 7.70595 47.2019 10.6781L76.581 61.5399Z" fill="#8E8E93"/>
</svg>
