<svg width="80" height="80" viewBox="0 0 80 80" fill="none" xmlns="http://www.w3.org/2000/svg">
<rect width="80" height="80" fill="#2F2F39"/>
<g clip-path="url(#clip0_1122_490)">
<path d="M43.1834 12.6665H35.3809V20.4858H43.1834V12.6665Z" fill="#8E8E93"/>
<path d="M43.1834 22.4941H35.3809V30.3134H43.1834V22.4941Z" fill="#8E8E93"/>
<path d="M43.1834 32.3218H35.3809V40.1411H43.1834V32.3218Z" fill="#8E8E93"/>
<path d="M33.7122 22.4941H25.9097V30.3134H33.7122V22.4941Z" fill="#8E8E93"/>
<path d="M33.7122 32.3218H25.9097V40.1411H33.7122V32.3218Z" fill="#8E8E93"/>
<path d="M24.2405 22.4941H16.438V30.3134H24.2405V22.4941Z" fill="#8E8E93"/>
<path d="M24.2405 32.3218H16.438V40.1411H24.2405V32.3218Z" fill="#8E8E93"/>
<path d="M14.8787 32.3218H7.07617V40.1411H14.8787V32.3218Z" fill="#8E8E93"/>
<path d="M52.6551 32.3218H44.8525V40.1411H52.6551V32.3218Z" fill="#8E8E93"/>
<path d="M28.1694 68.0003C-0.555741 68.0003 2.78821 42.6501 2.78821 42.6501C2.78821 42.6501 42.6598 42.6501 50.7486 42.6501C58.8375 42.6501 61.5114 40.0803 61.5114 40.0803C61.5114 40.0803 56.9432 34.1593 62.2911 27.0176C68.309 30.4786 68.0836 35.6182 68.0836 35.6182C68.0836 35.6182 74.2111 33.61 77.9997 37.071C75.8801 43.993 66.5243 43.5474 66.5243 43.5474C66.5243 43.5474 57.8325 68.0003 28.1694 68.0003Z" fill="#8E8E93"/>
</g>
<defs>
<clipPath id="clip0_1122_490">
<rect width="75.3333" height="55.3333" fill="white" transform="translate(2.6665 12.6665)"/>
</clipPath>
</defs>
</svg>
