<svg width="80" height="80" viewBox="0 0 80 80" fill="none" xmlns="http://www.w3.org/2000/svg">
<rect width="80" height="80" fill="#2F2F39"/>
<g clip-path="url(#clip0_1122_1732)">
<path fill-rule="evenodd" clip-rule="evenodd" d="M29.0801 5.56934H50.9201C58.449 5.56934 64.5779 11.5271 64.5779 18.6795C64.5779 22.8609 62.481 26.6378 59.233 29.0489C62.481 31.4631 64.5779 35.2369 64.5779 39.4214C64.5779 46.5707 58.449 52.5284 50.9201 52.5284C47.8525 52.5284 45.0184 51.5422 42.7379 49.8871V60.16C42.7379 67.3124 36.6121 73.2702 29.0801 73.2702C21.5512 73.2702 15.4224 67.3124 15.4224 60.16C15.4224 55.9787 17.5192 52.2049 20.7672 49.7906C17.5192 47.3764 15.4224 43.6027 15.4224 39.4214C15.4224 35.2369 17.5192 31.4631 20.7672 29.0489C17.5192 26.6378 15.4224 22.8609 15.4224 18.6795C15.4224 11.5271 21.5512 5.56934 29.0801 5.56934ZM37.2623 52.5284H29.0801C24.6312 52.5284 20.8979 55.9351 20.8979 60.16C20.8979 64.388 24.6312 67.7915 29.0801 67.7915C33.5321 67.7915 37.2623 64.388 37.2623 60.16V52.5284ZM42.7379 39.4214C42.7379 35.1934 46.4681 31.7867 50.9201 31.7867C55.369 31.7867 59.1023 35.1934 59.1023 39.4214C59.1023 43.6463 55.369 47.0528 50.9201 47.0528C46.4681 47.0528 42.7379 43.6463 42.7379 39.4214ZM28.9775 31.7898C24.5721 31.8396 20.8979 35.2276 20.8979 39.4214C20.8979 43.6463 24.6312 47.0528 29.0801 47.0528H37.2623V31.7867H29.0801L28.9775 31.7898ZM37.2623 26.3111V11.048H29.0801C24.6312 11.048 20.8979 14.4515 20.8979 18.6795C20.8979 22.9075 24.6312 26.3111 29.0801 26.3111H37.2623ZM42.7379 26.3111H50.9201C55.369 26.3111 59.1023 22.9075 59.1023 18.6795C59.1023 14.4515 55.369 11.048 50.9201 11.048H42.7379V26.3111Z" fill="#8E8E93"/>
</g>
<defs>
<clipPath id="clip0_1122_1732">
<rect width="74.6667" height="74.6667" fill="white" transform="translate(2.6665 2)"/>
</clipPath>
</defs>
</svg>
