<svg width="80" height="80" viewBox="0 0 80 80" fill="none" xmlns="http://www.w3.org/2000/svg">
<rect width="80" height="80" fill="#2F2F39"/>
<path opacity="0.5" d="M2.6665 2.6665H77.3332V77.3332H2.6665V2.6665ZM22.2872 65.0546C23.9465 68.5806 27.2235 71.4843 32.8235 71.4843C39.0458 71.4843 43.3184 68.1658 43.3184 60.9065V36.9302H36.2665V60.7406C36.2665 64.308 34.8147 65.2206 32.5332 65.2206C30.1272 65.2206 29.1317 63.5613 28.0117 61.6117L22.2872 65.0546V65.0546ZM47.0932 64.308C49.1672 68.3732 53.3569 71.4843 59.9109 71.4843C66.548 71.4843 71.5258 68.0413 71.5258 61.6946C71.5258 55.8458 68.1658 53.2324 62.1924 50.6606L60.4502 49.9139C57.4221 48.628 56.1361 47.7569 56.1361 45.6828C56.1361 43.9821 57.4221 42.6546 59.4961 42.6546C61.4872 42.6546 62.8146 43.5258 64.0176 45.6828L69.4517 42.0739C67.1702 38.0917 63.9346 36.5569 59.4961 36.5569C53.2324 36.5569 49.2087 40.5391 49.2087 45.8072C49.2087 51.5317 52.5687 54.228 57.6295 56.385L59.3717 57.1317C62.6072 58.5421 64.5154 59.4132 64.5154 61.8191C64.5154 63.8102 62.6487 65.2621 59.745 65.2621C56.3021 65.2621 54.3109 63.4783 52.8176 60.9895L47.0932 64.308V64.308Z" fill="#EEEEEE"/>
</svg>
