<svg width="80" height="80" viewBox="0 0 80 80" fill="none" xmlns="http://www.w3.org/2000/svg">
<rect width="80" height="80" fill="#2F2F39"/>
<g opacity="0.5" clip-path="url(#clip0_1122_2321)">
<path d="M39.318 16.5012C35.8679 18.9277 31.9576 21.6782 29.8625 26.2284C26.2234 34.1666 37.3091 42.8259 37.7828 43.1907C37.8929 43.2756 38.0246 43.3177 38.1561 43.3177C38.2956 43.3177 38.4354 43.27 38.549 43.175C38.7691 42.9909 38.8315 42.6783 38.6993 42.4237C38.6592 42.3463 34.6801 34.6172 34.8279 29.0721C34.8803 27.1411 37.583 24.9503 40.4443 22.6307C43.065 20.5063 46.0355 18.0983 47.7736 15.2816C51.5892 9.08133 47.3484 2.98463 47.3051 2.92392C47.1366 2.68743 46.8257 2.60151 46.5599 2.71828C46.2943 2.8353 46.1471 3.1227 46.2078 3.40643C46.2164 3.44658 47.0412 7.47833 44.7463 11.632C43.8006 13.3483 41.7234 14.8096 39.318 16.5012Z" fill="#EEEEEE"/>
<path d="M53.8535 19.2353C54.0968 19.0519 54.1683 18.7175 54.0209 18.4507C53.8735 18.1838 53.5526 18.0661 53.2676 18.1743C52.6816 18.397 38.9153 23.7033 38.9153 30.115C38.9153 34.5345 40.8032 36.8695 42.1818 38.5746C42.7225 39.2432 43.1894 39.8207 43.3431 40.3137C43.7762 41.7346 42.7502 44.3026 42.3188 45.1722C42.1945 45.4224 42.2554 45.7252 42.467 45.9078C42.5813 46.0065 42.724 46.0564 42.867 46.0564C42.9886 46.0564 43.1108 46.0202 43.2163 45.9467C43.453 45.782 49.0011 41.8594 48.006 37.1334C47.6353 35.3373 46.7526 34.0246 45.9736 32.8664C44.7669 31.0722 43.8954 29.776 45.2176 27.382C46.7673 24.5902 53.7827 19.2884 53.8535 19.2353Z" fill="#EEEEEE"/>
<path d="M18.0197 46.1585C17.7837 46.8648 17.895 47.5662 18.3416 48.1863C19.8339 50.2578 25.1198 51.3989 33.2264 51.3989C33.2269 51.3989 33.2271 51.3989 33.2274 51.3989C34.3258 51.3989 35.4855 51.3773 36.6733 51.3347C49.6341 50.8706 54.4414 46.833 54.6397 46.6613C54.8559 46.4743 54.9137 46.1627 54.7793 45.9105C54.6449 45.6586 54.355 45.532 54.0781 45.6082C49.5137 46.8545 40.99 47.2969 35.0779 47.2969C28.4624 47.2969 25.0934 46.8205 24.2686 46.4687C24.6919 45.8875 27.3023 44.8498 30.5369 44.2135C30.8461 44.1528 31.0586 43.8674 31.028 43.5538C30.9974 43.2402 30.734 43.001 30.4189 43.001C28.5226 43.0012 19.0136 43.1535 18.0197 46.1585Z" fill="#EEEEEE"/>
<path d="M61.3894 42.0005C58.7161 42.0005 56.1811 43.3401 56.0743 43.3971C55.8271 43.5296 55.7018 43.813 55.7696 44.0853C55.8376 44.3572 56.0822 44.5484 56.3627 44.5487C56.4195 44.5489 62.065 44.595 62.5765 47.8205C63.0293 50.6033 57.2347 55.1121 54.9637 56.6148C54.7184 56.7771 54.6231 57.0909 54.737 57.3619C54.8337 57.5928 55.0586 57.7372 55.301 57.7372C55.3434 57.7372 55.3862 57.7328 55.4288 57.7235C55.9679 57.6084 68.6129 54.822 67.276 47.4595C66.4603 42.9474 63.6245 42.0005 61.3894 42.0005Z" fill="#EEEEEE"/>
<path d="M52.7175 55.7137C52.7616 55.4777 52.6634 55.2378 52.4671 55.1002L49.4351 52.9765C49.2872 52.873 49.1005 52.8404 48.9269 52.8864C48.8953 52.8948 45.7246 53.7281 41.1212 54.2392C39.2942 54.4442 37.2478 54.5524 35.203 54.5524C30.6008 54.5524 27.5916 54.0116 27.1534 53.615C27.0954 53.5036 27.1138 53.4529 27.1241 53.4248C27.2036 53.2032 27.6303 52.94 27.9055 52.836C28.2093 52.7236 28.3731 52.3936 28.2786 52.0837C28.1843 51.7738 27.8648 51.5912 27.5495 51.6671C24.508 52.401 23.0208 53.4275 23.129 54.7176C23.3212 57.0048 28.6196 58.1789 33.0988 58.4896C33.7429 58.5337 34.4397 58.5562 35.1689 58.5562C35.1694 58.5562 35.1697 58.5562 35.1702 58.5562C42.6184 58.5562 52.1669 56.2193 52.2624 56.1955C52.4955 56.138 52.6732 55.9497 52.7175 55.7137Z" fill="#EEEEEE"/>
<path d="M29.8588 60.6235C30.0884 60.4739 30.1903 60.1902 30.1087 59.9287C30.0275 59.6673 29.7829 59.4956 29.5082 59.4991C29.1006 59.5098 25.5198 59.6714 25.2691 61.9513C25.1932 62.6326 25.3883 63.2549 25.8493 63.8011C27.1351 65.3248 30.6054 66.2303 36.4573 66.5699C37.1497 66.6112 37.8527 66.6321 38.5478 66.6321C45.9875 66.6321 50.998 64.3027 51.2078 64.2036C51.4112 64.1073 51.5453 63.9076 51.5573 63.6829C51.5693 63.4584 51.4572 63.2451 51.2653 63.1279L47.4335 60.7887C47.3006 60.7077 47.1415 60.6808 46.9897 60.7119C46.9655 60.717 44.5326 61.2215 40.8609 61.7202C40.1662 61.8145 39.2961 61.8625 38.2753 61.8625C34.6076 61.8625 30.5281 61.2632 29.7457 60.871C29.7344 60.7973 29.7489 60.7043 29.8588 60.6235Z" fill="#EEEEEE"/>
<path d="M35.0805 73.6648C52.1216 73.6504 61.2679 70.6199 63.0298 68.7129C63.6535 68.0379 63.7209 67.3992 63.6677 66.9821C63.5368 65.9554 62.6018 65.3269 62.4956 65.2586C62.2398 65.0941 61.8965 65.1372 61.697 65.3673C61.498 65.5977 61.4934 65.9338 61.6931 66.1637C61.8006 66.302 61.8628 66.5333 61.5484 66.8479C60.8441 67.5057 53.7398 69.5026 41.9112 70.1024C40.2908 70.1869 38.5913 70.2295 36.86 70.2297C26.2692 70.2297 18.5183 68.7792 17.5009 67.9336C17.8933 67.3703 20.6347 66.4699 23.5503 65.961C23.8789 65.9037 24.1009 65.594 24.05 65.2645C23.9991 64.935 23.6953 64.7081 23.3633 64.7514C23.281 64.7624 23.0022 64.7795 22.6788 64.7991C17.8681 65.0929 12.3087 65.7478 12.0187 68.2262C11.9305 68.9817 12.155 69.6671 12.686 70.264C13.9852 71.7238 17.7197 73.6646 35.0798 73.6646C35.0803 73.6648 35.0803 73.6648 35.0805 73.6648Z" fill="#EEEEEE"/>
<path d="M66.377 69.2505C66.1361 69.1391 65.8517 69.1954 65.6717 69.3893C65.6465 69.4162 63.0846 72.0954 55.3812 73.6685C52.432 74.2595 46.8962 74.5592 38.9275 74.5592C30.9438 74.5592 23.3471 74.2451 23.2713 74.2419C22.954 74.2265 22.6825 74.4571 22.6394 74.7694C22.5961 75.0818 22.7973 75.3758 23.1038 75.4488C23.1829 75.4676 31.1443 77.3328 42.0299 77.3328C47.2509 77.3328 52.3314 76.9086 57.1306 76.0718C66.0791 74.5031 66.7056 70.066 66.7278 69.8779C66.7589 69.615 66.6174 69.3619 66.377 69.2505Z" fill="#EEEEEE"/>
</g>
<defs>
<clipPath id="clip0_1122_2321">
<rect width="74.6667" height="74.6667" fill="white" transform="translate(2.66675 2.6665)"/>
</clipPath>
</defs>
</svg>
