<svg width="80" height="80" viewBox="0 0 80 80" fill="none" xmlns="http://www.w3.org/2000/svg">
<rect width="80" height="80" fill="#2F2F39"/>
<path fill-rule="evenodd" clip-rule="evenodd" d="M50.6804 6.16269L10.983 9.07589C7.7821 9.35219 6.6665 11.4332 6.6665 13.928V57.1974C6.6665 59.1414 7.36175 60.803 9.03407 63.0239L18.3658 75.0894C19.8987 77.0323 21.2916 77.4479 24.2185 77.3088L70.3188 74.5347C74.2178 74.2586 75.3332 72.4544 75.3332 69.4034V20.7244C75.3332 19.1472 74.7071 18.6916 72.8612 17.3487C72.7596 17.2749 72.6542 17.1984 72.5453 17.1187L59.8734 8.24315C56.8094 6.02511 55.5553 5.746 50.6804 6.16269ZM25.2637 19.9259C21.4999 20.1792 20.6447 20.2367 18.5072 18.5062L13.0718 14.2071C12.5175 13.6512 12.7955 12.9579 14.1874 12.8202L52.352 10.0463C55.5546 9.7683 57.2257 10.8797 58.4798 11.8498L65.0258 16.5657C65.3045 16.7038 65.9998 17.5348 65.1636 17.5348L25.7496 19.8934L25.2637 19.9259ZM20.8736 68.9866V27.6599C20.8736 25.8573 21.4308 25.0246 23.1012 24.8845L68.3668 22.2504C69.9023 22.1118 70.5976 23.0834 70.5976 24.8845V65.9343C70.5976 67.7385 70.3181 69.266 67.8101 69.4034L24.4943 71.9013C21.9875 72.0387 20.8736 71.2077 20.8736 68.9866ZM63.635 29.8767C63.9128 31.1262 63.635 32.3743 62.379 32.5148L60.2918 32.9293V63.4393C58.4798 64.4099 56.8089 64.9648 55.4165 64.9648C53.1872 64.9648 52.6288 64.2708 50.9591 62.1916L37.3073 40.8344V61.4983L41.6271 62.4696C41.6271 62.4696 41.6271 64.9648 38.1421 64.9648L28.534 65.5203C28.2548 64.9648 28.534 63.5791 29.5084 63.3013L32.0157 62.6089V35.2876L28.5345 35.0096C28.2553 33.7603 28.9505 31.9589 30.902 31.8191L41.2094 31.1267L55.4165 52.7618V33.6226L51.7943 33.2084C51.5161 31.6809 52.6288 30.5719 54.022 30.4343L63.635 29.8767Z" fill="#8E8E93"/>
</svg>
