<svg width="80" height="80" viewBox="0 0 80 80" fill="none" xmlns="http://www.w3.org/2000/svg">
<rect width="80" height="80" fill="#2F2F39"/>
<g opacity="0.5">
<path d="M80 40.008C80 34.7182 73.3632 29.7051 63.1879 26.5964C65.5361 16.2446 64.4925 8.00884 59.894 5.37208C58.8341 4.75358 57.5948 4.46061 56.2413 4.46061V8.09023C56.9914 8.09023 57.5948 8.23671 58.1003 8.51341C60.318 9.78296 61.2801 14.617 60.53 20.8346C60.3506 22.3645 60.0571 23.9759 59.6983 25.6198C56.5022 24.8385 53.0126 24.2363 49.3437 23.8457C47.1423 20.8346 44.8594 18.1001 42.5601 15.7075C47.8761 10.7758 52.8659 8.07395 56.2576 8.07395V4.44434C51.7733 4.44434 45.903 7.63449 39.9674 13.1684C34.0318 7.66704 28.1614 4.50944 23.6771 4.50944V8.13905C27.0526 8.13905 32.0587 10.8246 37.3746 15.7238C35.0917 18.1164 32.8088 20.8346 30.64 23.8457C26.9548 24.2363 23.4651 24.8385 20.2691 25.6361C19.894 24.0084 19.6168 22.4296 19.4211 20.9159C18.6547 14.6984 19.6005 9.86434 21.8019 8.57851C22.2911 8.28554 22.927 8.15533 23.6771 8.15533V4.52572C22.3074 4.52572 21.0681 4.81869 19.9918 5.43719C15.4097 8.07395 14.3824 16.2935 16.7468 26.6126C6.60416 29.7377 0 34.7345 0 40.008C0 45.2978 6.63677 50.3109 16.8121 53.4197C14.4639 63.7714 15.5075 72.0072 20.106 74.644C21.1659 75.2625 22.4052 75.5554 23.775 75.5554C28.2593 75.5554 34.1296 72.3653 40.0652 66.8314C46.0008 72.3327 51.8712 75.4903 56.3555 75.4903C57.7252 75.4903 58.9645 75.1974 60.0408 74.5789C64.6229 71.9421 65.6502 63.7226 63.2858 53.4034C73.3958 50.2946 80 45.2815 80 40.008ZM58.7689 29.1517C58.1655 31.2514 57.4154 33.4161 56.5675 35.5809C55.8989 34.2788 55.1977 32.9767 54.4313 31.6746C53.6812 30.3725 52.8822 29.1029 52.0832 27.8659C54.3987 28.2077 56.6327 28.6309 58.7689 29.1517ZM51.3004 46.486C50.0285 48.6833 48.724 50.7667 47.3706 52.7035C44.9409 52.9151 42.4786 53.0291 40 53.0291C37.5377 53.0291 35.0754 52.9151 32.662 52.7198C31.3086 50.7829 29.9878 48.7158 28.7159 46.5348C27.4766 44.4026 26.3514 42.2379 25.3241 40.0569C26.3351 37.8758 27.4766 35.6948 28.6996 33.5626C29.9715 31.3653 31.276 29.282 32.6294 27.3451C35.0591 27.1335 37.5214 27.0195 40 27.0195C42.4623 27.0195 44.9246 27.1335 47.338 27.3288C48.6914 29.2657 50.0122 31.3328 51.2841 33.5138C52.5234 35.646 53.6486 37.8107 54.6759 39.9918C53.6486 42.1728 52.5234 44.3538 51.3004 46.486ZM56.5675 44.3701C57.448 46.5511 58.1981 48.7321 58.8178 50.848C56.6816 51.3689 54.4313 51.8083 52.0995 52.1501C52.8985 50.8969 53.6975 49.611 54.4476 48.2927C55.1977 46.9906 55.8989 45.6722 56.5675 44.3701ZM40.0326 61.7369C38.5161 60.1744 36.9996 58.4328 35.4994 56.5285C36.967 56.5936 38.4672 56.6424 39.9837 56.6424C41.5165 56.6424 43.033 56.6098 44.5169 56.5285C43.0493 58.4328 41.5328 60.1744 40.0326 61.7369ZM27.9005 52.1501C25.585 51.8083 23.351 51.3852 21.2148 50.8643C21.8182 48.7647 22.5683 46.5999 23.4162 44.4352C24.0848 45.7373 24.786 47.0394 25.5524 48.3415C26.3188 49.6436 27.1015 50.9131 27.9005 52.1501ZM39.9511 18.2792C41.4676 19.8417 42.9841 21.5833 44.4843 23.4876C43.0167 23.4225 41.5165 23.3737 40 23.3737C38.4672 23.3737 36.9507 23.4062 35.4668 23.4876C36.9344 21.5833 38.4509 19.8417 39.9511 18.2792ZM27.8842 27.8659C27.0852 29.1192 26.2862 30.405 25.5361 31.7234C24.786 33.0255 24.0848 34.3276 23.4162 35.6297C22.5357 33.4487 21.7856 31.2677 21.1659 29.1517C23.3021 28.6472 25.5524 28.2077 27.8842 27.8659ZM13.1268 48.2438C7.35426 45.7861 3.62006 42.5634 3.62006 40.008C3.62006 37.4527 7.35426 34.2137 13.1268 31.7722C14.5292 31.17 16.062 30.6329 17.6437 30.1283C18.5732 33.3185 19.7962 36.6388 21.3127 40.0406C19.8125 43.4261 18.6058 46.7301 17.6926 49.904C16.0783 49.3994 14.5455 48.8461 13.1268 48.2438ZM21.8997 71.5026C19.682 70.2331 18.7199 65.399 19.47 59.1815C19.6494 57.6515 19.9429 56.0402 20.3017 54.3963C23.4978 55.1775 26.9874 55.7798 30.6563 56.1704C32.8577 59.1815 35.1406 61.9159 37.4399 64.3085C32.1239 69.2402 27.1341 71.9421 23.7424 71.9421C23.0086 71.9258 22.3889 71.7793 21.8997 71.5026ZM60.5789 59.1001C61.3453 65.3177 60.3995 70.1517 58.1981 71.4375C57.7089 71.7305 57.073 71.8607 56.3229 71.8607C52.9474 71.8607 47.9413 69.1751 42.6254 64.276C44.9083 61.8834 47.1912 59.1652 49.36 56.1541C53.0453 55.7635 56.5349 55.1613 59.7309 54.3637C60.106 56.0076 60.3995 57.5864 60.5789 59.1001ZM66.8569 48.2438C65.4545 48.8461 63.9217 49.3832 62.34 49.8877C61.4105 46.6976 60.1875 43.3772 58.671 39.9755C60.1712 36.59 61.3779 33.2859 62.2911 30.112C63.9054 30.6166 65.4382 31.17 66.8732 31.7722C72.6457 34.2299 76.3799 37.4527 76.3799 40.008C76.3636 42.5634 72.6294 45.8024 66.8569 48.2438Z" fill="#EEEEEE"/>
<path d="M39.9819 47.4459C44.0976 47.4459 47.434 44.1156 47.434 40.0076C47.434 35.8996 44.0976 32.5693 39.9819 32.5693C35.8662 32.5693 32.5298 35.8996 32.5298 40.0076C32.5298 44.1156 35.8662 47.4459 39.9819 47.4459Z" fill="#EEEEEE"/>
</g>
</svg>
