<svg width="80" height="80" viewBox="0 0 80 80" fill="none" xmlns="http://www.w3.org/2000/svg">
<g clip-path="url(#clip0_1122_146)">
<rect width="80" height="80" fill="#2F2F39"/>
<g opacity="0.5">
<path d="M82 40.0084C82 34.4541 75.0314 29.1903 64.3473 25.9261C66.8129 15.0568 65.7171 6.40924 60.8887 3.64064C59.7758 2.99122 58.4745 2.68359 57.0534 2.68359V6.49469C57.841 6.49469 58.4745 6.6485 59.0053 6.93903C61.3339 8.27206 62.3441 13.3478 61.5565 19.8762C61.3681 21.4827 61.0599 23.1746 60.6832 24.9007C57.3274 24.0804 53.6633 23.4481 49.8108 23.0379C47.4994 19.8762 45.1023 17.0051 42.6881 14.4929C48.2699 9.31455 53.5092 6.4776 57.0705 6.4776V2.6665C52.362 2.6665 46.1981 6.01617 39.9658 11.8268C33.7334 6.05035 27.5695 2.73486 22.861 2.73486V6.54596C26.4052 6.54596 31.6616 9.36582 37.2434 14.5099C34.8463 17.0222 32.4492 19.8762 30.172 23.0379C26.3025 23.4481 22.6384 24.0804 19.2825 24.9178C18.8887 23.2088 18.5976 21.5511 18.3922 19.9617C17.5874 13.4333 18.5805 8.35751 20.892 7.00739C21.4056 6.69977 22.0734 6.56305 22.861 6.56305V2.75195C21.4227 2.75195 20.1215 3.05958 18.9914 3.709C14.1802 6.4776 13.1015 15.1081 15.5842 25.9432C4.93437 29.2245 -2 34.4712 -2 40.0084C-2 45.5627 4.96861 50.8264 15.6527 54.0906C13.1871 64.9599 14.2829 73.6075 19.1113 76.3761C20.2242 77.0255 21.5255 77.3332 22.9637 77.3332C27.6722 77.3332 33.8361 73.9835 40.0685 68.1729C46.3009 73.9493 52.4647 77.2648 57.1733 77.2648C58.6115 77.2648 59.9128 76.9572 61.0428 76.3078C65.8541 73.5392 66.9327 64.9087 64.4501 54.0735C75.0656 50.8093 82 45.5456 82 40.0084ZM59.7073 28.6093C59.0738 30.8139 58.2862 33.0869 57.3958 35.3599C56.6938 33.9927 55.9576 32.6255 55.1529 31.2582C54.3653 29.891 53.5263 28.558 52.6873 27.2592C55.1186 27.6181 57.4643 28.0624 59.7073 28.6093ZM51.8655 46.8102C50.53 49.1174 49.1602 51.3049 47.7391 53.3387C45.1879 53.5608 42.6025 53.6805 40 53.6805C37.4146 53.6805 34.8292 53.5608 32.2951 53.3558C30.874 51.322 29.4872 49.1516 28.1516 46.8615C26.8504 44.6227 25.669 42.3497 24.5903 40.0596C25.6519 37.7696 26.8504 35.4795 28.1345 33.2407C29.47 30.9335 30.8398 28.746 32.2609 26.7123C34.8121 26.4901 37.3975 26.3705 40 26.3705C42.5854 26.3705 45.1708 26.4901 47.7048 26.6952C49.126 28.7289 50.5128 30.8994 51.8483 33.1894C53.1496 35.4282 54.331 37.7012 55.4097 39.9913C54.331 42.2814 53.1496 44.5714 51.8655 46.8102ZM57.3958 44.5885C58.3204 46.8786 59.108 49.1687 59.7587 51.3904C57.5157 51.9373 55.1529 52.3987 52.7044 52.7576C53.5434 51.4417 54.3824 50.0915 55.17 48.7072C55.9576 47.34 56.6938 45.9557 57.3958 44.5885ZM40.0342 62.8237C38.4419 61.183 36.8496 59.3544 35.2744 57.3548C36.8153 57.4232 38.3905 57.4745 39.9829 57.4745C41.5923 57.4745 43.1847 57.4403 44.7428 57.3548C43.2018 59.3544 41.6095 61.183 40.0342 62.8237ZM27.2956 52.7576C24.8642 52.3987 22.5185 51.9544 20.2756 51.4075C20.9091 49.2029 21.6967 46.9299 22.587 44.6569C23.289 46.0241 24.0253 47.3913 24.83 48.7585C25.6347 50.1257 26.4566 51.4587 27.2956 52.7576ZM39.9486 17.1931C41.541 18.8337 43.1333 20.6624 44.7085 22.6619C43.1675 22.5936 41.5923 22.5423 40 22.5423C38.3905 22.5423 36.7982 22.5765 35.2401 22.6619C36.7811 20.6624 38.3734 18.8337 39.9486 17.1931ZM27.2784 27.2592C26.4395 28.5751 25.6005 29.9252 24.8129 31.3095C24.0253 32.6767 23.289 34.0439 22.587 35.4111C21.6625 33.1211 20.8748 30.831 20.2242 28.6093C22.4672 28.0795 24.83 27.6181 27.2784 27.2592ZM11.7831 48.656C5.72198 46.0754 1.80106 42.6915 1.80106 40.0084C1.80106 37.3252 5.72198 33.9243 11.7831 31.3608C13.2556 30.7285 14.8651 30.1645 16.5259 29.6347C17.5018 32.9843 18.786 36.4707 20.3783 40.0426C18.8031 43.5973 17.5361 47.0666 16.5773 50.3992C14.8822 49.8694 13.2727 49.2883 11.7831 48.656ZM20.9947 73.0777C18.6661 71.7447 17.6559 66.6689 18.4435 60.1405C18.6319 58.534 18.9401 56.8421 19.3168 55.116C22.6726 55.9364 26.3367 56.5687 30.1892 56.9788C32.5006 60.1405 34.8977 63.0117 37.3119 65.5239C31.7301 70.7022 26.4908 73.5392 22.9295 73.5392C22.159 73.5221 21.5084 73.3683 20.9947 73.0777ZM61.6078 60.0551C62.4126 66.5835 61.4195 71.6593 59.108 73.0094C58.5944 73.317 57.9266 73.4537 57.139 73.4537C53.5948 73.4537 48.3384 70.6338 42.7566 65.4897C45.1537 62.9775 47.5508 60.1234 49.828 56.9618C53.6975 56.5516 57.3616 55.9193 60.7175 55.0819C61.1113 56.808 61.4195 58.4657 61.6078 60.0551ZM68.1998 48.656C66.7273 49.2883 65.1178 49.8523 63.457 50.3821C62.481 47.0324 61.1969 43.546 59.6046 39.9742C61.1798 36.4195 62.4468 32.9502 63.4056 29.6176C65.1007 30.1474 66.7101 30.7285 68.2169 31.3608C74.278 33.9414 78.1989 37.3252 78.1989 40.0084C78.1818 42.6915 74.2609 46.0925 68.1998 48.656Z" fill="#EEEEEE"/>
<path d="M39.981 47.8181C44.3024 47.8181 47.8057 44.3214 47.8057 40.0079C47.8057 35.6945 44.3024 32.1978 39.981 32.1978C35.6595 32.1978 32.1562 35.6945 32.1562 40.0079C32.1562 44.3214 35.6595 47.8181 39.981 47.8181Z" fill="#EEEEEE"/>
</g>
</g>
<defs>
<clipPath id="clip0_1122_146">
<rect width="80" height="80" fill="white"/>
</clipPath>
</defs>
</svg>
