<svg width="80" height="80" viewBox="0 0 80 80" fill="none" xmlns="http://www.w3.org/2000/svg">
<rect width="80" height="80" fill="#2F2F39"/>
<g opacity="0.5" clip-path="url(#clip0_1122_60)">
<path d="M2.6665 39.9998V77.3332H77.3332V2.6665H2.6665V39.9998ZM48.4582 38.6873V42.0415H38.8332V72.6665H30.9582V42.0415H21.3332V35.3332H48.4582V38.6873ZM67.4165 35.7415C68.6123 35.9748 69.954 36.2957 70.4207 36.4707L71.2082 36.7915V40.4373C71.2082 42.4498 71.1498 44.0832 71.0915 44.0832C71.0332 44.0832 70.4207 43.7623 69.7207 43.3832C67.0957 41.8957 62.8957 41.3415 60.329 42.0998C59.7165 42.2748 58.8123 42.829 58.3457 43.2957C57.6457 43.9665 57.4998 44.3748 57.4998 45.454C57.4998 46.6207 57.6457 46.9415 58.6082 47.8457C59.2207 48.429 61.4957 49.7707 63.7123 50.879C68.379 53.1832 70.7415 55.1373 71.8207 57.5582C72.7832 59.7165 72.8123 64.2665 71.879 66.3082C71.004 68.2332 69.079 70.1873 67.1832 71.0915C63.1582 72.9873 56.5957 73.1623 51.4623 71.4707L49.6248 70.8582V62.7498L51.0832 63.7998C52.979 65.1707 55.429 66.0165 57.9957 66.1915C60.5623 66.3665 62.4582 65.8998 63.6248 64.7915C64.354 64.1207 64.4998 63.7415 64.4998 62.6332C64.4998 60.504 63.2748 59.3957 58.2582 56.9457C53.8248 54.7582 52.4248 53.7665 51.1123 51.8415C48.1957 47.6123 49.0707 41.1373 52.979 38.1915C56.304 35.654 61.8165 34.7207 67.4165 35.7415V35.7415Z" fill="#EEEEEE"/>
</g>
<defs>
<clipPath id="clip0_1122_60">
<rect width="74.6667" height="74.6667" fill="white" transform="translate(2.6665 2.6665)"/>
</clipPath>
</defs>
</svg>
