<svg width="80" height="80" viewBox="0 0 80 80" fill="none" xmlns="http://www.w3.org/2000/svg">
<g clip-path="url(#clip0_1122_282)">
<rect width="80" height="80" fill="#2F2F39"/>
<g clip-path="url(#clip1_1122_282)">
<path d="M0 29.3335H80.6667V50.6668H0V29.3335Z" fill="#74747A"/>
<path d="M3.45662 32.5811H15.1229V34.1329L5.71444 45.7208H15.366V47.4165H3.21631V45.8647L12.6276 34.2768H3.45662V32.5811ZM23.2405 34.5702L20.5048 41.94H25.9789L23.2405 34.5702ZM22.0864 32.5811H24.3442L30.0111 47.4165H27.9461L26.602 43.6357H19.8789L18.5348 47.4165H16.4223L22.0864 32.5811ZM34.1858 40.3402V45.7715H37.4021C38.5059 45.7715 39.2743 45.5289 39.8024 45.0916C40.3306 44.6542 40.5709 43.9771 40.5709 43.0544C40.5709 42.1346 40.3306 41.4547 39.8024 41.0173C39.2743 40.58 38.4584 40.3373 37.4021 40.3373H34.1858V40.3402ZM34.1858 34.2288V38.6896H37.1646C38.1258 38.6896 38.8943 38.4949 39.3721 38.1563C39.8527 37.7698 40.0931 37.2365 40.0931 36.4606C40.0931 35.7327 39.8527 35.1514 39.3721 34.7649C38.8915 34.3783 38.1706 34.2316 37.1646 34.2316H34.1858V34.2288ZM32.1711 32.5811H37.3099C38.8468 32.5811 39.998 32.9196 40.8643 33.5516C41.6802 34.1808 42.1134 35.1035 42.1134 36.2659C42.1134 37.1857 41.9205 37.9137 41.4902 38.4469C41.0571 38.9802 40.434 39.3188 39.618 39.4655C40.6268 39.6602 41.3952 40.0947 41.9233 40.7747C42.4515 41.4547 42.7393 42.2785 42.7393 43.2971C42.7393 44.6063 42.3062 45.6248 41.3952 46.3528C40.4843 47.0807 39.2352 47.4193 37.553 47.4193H32.1739V32.5811H32.1711ZM47.9675 40.3402V45.7715H51.1837C52.24 45.7715 53.0559 45.5289 53.5841 45.0916C54.1122 44.6542 54.3525 43.9771 54.3525 43.0544C54.3525 42.1346 54.1122 41.4547 53.5841 41.0173C53.0559 40.58 52.24 40.3373 51.1837 40.3373H47.9675V40.3402ZM47.9675 34.2288V38.6896H50.9434C51.9047 38.6896 52.6731 38.4949 53.1509 38.1563C53.6316 37.7698 53.8719 37.2365 53.8719 36.4606C53.8719 35.7327 53.6316 35.1514 53.1509 34.7649C52.6703 34.3783 51.9494 34.2316 50.9434 34.2316H47.9675V34.2288ZM45.95 32.5811H51.0887C52.6256 32.5811 53.7769 32.9196 54.6431 33.5516C55.4591 34.1808 55.8922 35.1035 55.8922 36.2659C55.8922 37.1857 55.6994 37.9137 55.269 38.4469C54.8359 38.9802 54.2128 39.3188 53.3968 39.4655C54.4056 39.6602 55.174 40.0947 55.7022 40.7747C56.2303 41.4547 56.5181 42.2785 56.5181 43.2971C56.5181 44.6063 56.085 45.6248 55.174 46.3528C54.2631 47.0807 53.014 47.4193 51.3318 47.4193H45.9528V32.5811H45.95ZM65.4935 32.5811H67.701L71.2051 37.9137L74.7595 32.5811H76.872L72.2614 39.5135L77.4476 47.4165H75.2401L71.1576 41.212L67.0751 47.4165H64.9151L70.1013 39.5614L65.4935 32.5811ZM59.6841 32.5811H61.7016V47.4165H59.6841V32.5811Z" fill="#2F2F39"/>
</g>
</g>
<defs>
<clipPath id="clip0_1122_282">
<rect width="80" height="80" fill="white"/>
</clipPath>
<clipPath id="clip1_1122_282">
<rect width="80.6667" height="21.3333" fill="white" transform="translate(0 29.3335)"/>
</clipPath>
</defs>
</svg>
