<svg width="52" height="52" viewBox="0 0 52 52" fill="none" xmlns="http://www.w3.org/2000/svg">
<path d="M49.4 2.6H41.6V0H10.4V2.6H2.6C1.04 2.6 0 3.64 0 5.2V11.44C0 17.42 4.42 22.36 10.4 23.14V23.4C10.4 30.94 15.6 37.18 22.62 38.74L20.8 44.2H14.82C13.78 44.2 12.74 44.98 12.48 46.02L10.4 52H41.6L39.52 46.02C39.26 44.98 38.22 44.2 37.18 44.2H31.2L29.38 38.74C36.4 37.18 41.6 30.94 41.6 23.4V23.14C47.58 22.36 52 17.42 52 11.44V5.2C52 3.64 50.96 2.6 49.4 2.6ZM10.4 17.94C7.54 17.16 5.2 14.56 5.2 11.44V7.8H10.4V17.94ZM31.2 26L26 23.14L20.8 26L22.1 20.8L18.2 15.6H23.66L26 10.4L28.34 15.6H33.8L29.9 20.8L31.2 26ZM46.8 11.44C46.8 14.56 44.46 17.42 41.6 17.94V7.8H46.8V11.44Z" fill="white"/>
</svg>
