<svg width="18" height="18" viewBox="0 0 18 18" fill="none" xmlns="http://www.w3.org/2000/svg">
<g clip-path="url(#clip0_328_9498)">
<path d="M16.125 10.125C17.1585 10.125 18 9.2835 18 8.25001L18 2.25C18 1.21651 17.1585 0.375012 16.125 0.375012L13.875 0.375012C13.4527 0.375012 13.0643 0.5175 12.75 0.754524L12.75 10.125L16.125 10.125Z" fill="white"/>
<path d="M1.05425e-05 7.31251C1.0582e-05 7.76325 0.178499 8.18326 0.48826 8.49302C0.137999 8.87626 -0.0404899 9.39004 0.0082715 9.92476C0.096022 10.878 0.954785 11.625 1.96426 11.625L6.59701 11.625C6.36751 12.3218 6.00002 13.599 6.00002 14.625C6.00002 16.2518 7.38226 17.625 8.25002 17.625C9.02926 17.625 9.58579 17.1863 9.60976 17.1683C9.69825 17.097 9.75 16.989 9.75 16.875L9.75 14.3318L11.91 9.65251L12 9.60677L12 1.56826C11.3895 1.28026 10.617 1.12501 10.125 1.12501L3.24075 1.12501C2.424 1.12501 1.70924 1.67552 1.54126 2.43525C1.45502 2.82601 1.50526 3.21976 1.677 3.56176C1.12276 3.84076 0.749999 4.41152 0.749999 5.06251C0.749999 5.32801 0.810749 5.58226 0.926237 5.8125C0.371999 6.0915 1.04857e-05 6.66226 1.05425e-05 7.31251Z" fill="white"/>
</g>
<defs>
<clipPath id="clip0_328_9498">
<rect width="18" height="18" fill="white" transform="translate(18 18) rotate(180)"/>
</clipPath>
</defs>
</svg>
