<svg width="123" height="184" viewBox="0 0 123 184" fill="none" xmlns="http://www.w3.org/2000/svg">
<g opacity="0.2">
<path d="M30.7565 184C47.7271 184 61.5004 170.261 61.5004 153.333V122.667H30.7565C13.7859 122.667 0.0126953 136.405 0.0126953 153.333C0.0126953 170.261 13.7859 184 30.7565 184Z" fill="#D2D2D2"/>
<path d="M0.0126953 91.9999C0.0126953 75.0719 13.7859 61.3333 30.7565 61.3333H61.5004V122.667H30.7565C13.7859 122.667 0.0126953 108.928 0.0126953 91.9999Z" fill="#D2D2D2"/>
<path d="M0.0126953 30.6667C0.0126953 13.7387 13.7859 6.10352e-05 30.7565 6.10352e-05H61.5004V61.3334H30.7565C13.7859 61.3334 0.0126953 47.5947 0.0126953 30.6667Z" fill="#D2D2D2"/>
<path d="M61.5 6.10352e-05H92.2439C109.214 6.10352e-05 122.988 13.7387 122.988 30.6667C122.988 47.5947 109.214 61.3334 92.2439 61.3334H61.5V6.10352e-05Z" fill="#D2D2D2"/>
<path d="M122.988 91.9999C122.988 108.928 109.214 122.667 92.2439 122.667C75.2733 122.667 61.5 108.928 61.5 91.9999C61.5 75.0719 75.2733 61.3333 92.2439 61.3333C109.214 61.3333 122.988 75.0719 122.988 91.9999Z" fill="#D2D2D2"/>
</g>
</svg>
