<svg width="62" height="229" viewBox="50 0 62 229" fill="none" xmlns="http://www.w3.org/2000/svg">
<g clip-path="url(#clip0_117_37)">
<path d="M80.6782 184.972L108.832 184.972L108.832 198.122L85.4808 198.122C81.1148 198.122 78.1353 198.709 76.5421 199.885C74.8876 201.002 74.0604 203.091 74.0604 206.15C74.0604 209.509 75.2124 211.979 77.5164 213.561C79.7591 215.087 83.2411 215.851 87.9625 215.851L108.855 215.851L108.855 229L42.4326 229L42.4326 215.855L69.9656 215.855L69.9656 215.677C65.2443 212.623 62.8836 207.738 62.8836 201.021C62.8836 195.671 64.3297 191.673 67.222 189.026C70.0529 186.324 74.5383 184.972 80.6782 184.972Z" fill="white"/>
<path d="M81.3861 135.614L108.832 135.614L108.832 147.879L102.37 147.879L102.37 148.053C104.435 149.113 106.175 150.849 107.591 153.261C108.951 155.615 109.63 158.615 109.627 162.26C109.627 167.082 108.417 170.875 105.996 173.642C103.521 176.39 100.069 177.771 95.6421 177.787C90.8564 177.787 87.3437 176.139 85.1041 172.845C82.8613 169.486 81.74 164.311 81.74 157.319C81.7255 154.45 81.9623 151.586 82.4477 148.759L80.4256 148.759C78.0695 148.759 76.3584 149.494 75.2922 150.966C74.1708 152.377 73.6102 154.847 73.6102 158.377C73.5538 163.606 74.7363 168.775 77.0615 173.463L66.0732 173.463C63.7692 168.272 62.6172 162.471 62.6172 156.059C62.6172 148.71 64.0633 143.475 66.9555 140.354C69.7926 137.194 74.6028 135.614 81.3861 135.614ZM91.8322 148.759L89.6171 148.759C89.2638 150.976 89.0855 153.218 89.084 155.464C89.084 161.409 90.7691 164.379 94.1393 164.376C97.7362 164.376 99.5362 162.053 99.5392 157.406C99.5392 154.523 98.8606 152.377 97.5033 150.966C96.143 149.494 94.2526 148.759 91.8322 148.759Z" fill="white"/>
<path d="M63.6786 96.3036L74.8371 96.3036L74.8371 108.743L90.4166 108.743C93.2475 108.743 95.2543 108.244 96.437 107.245C97.6196 106.247 98.2094 104.364 98.2063 101.598C98.2385 99.7406 97.8456 97.9002 97.0574 96.2166L108.124 96.2166C109.303 98.4517 109.893 101.687 109.893 105.922C109.893 111.625 108.654 115.712 106.175 118.182C103.638 120.655 99.8317 121.891 94.7549 121.888L74.8371 121.888L74.8371 129.916L63.6786 129.916L63.6786 121.888L54.1195 121.888L49.6938 108.743L63.6786 108.743L63.6786 96.3036Z" fill="white"/>
<path d="M42.4326 76.019L82.9807 76.019L63.6787 61.1065L63.6786 46.1116L83.955 62.7828L108.832 44.3437L108.832 59.5172L85.637 76.019L108.832 76.019L108.832 89.1636L42.4326 89.1636L42.4326 76.019Z" fill="white"/>
<path d="M81.3861 0.000258579L108.832 0.000257379L108.832 12.2655L102.37 12.2655L102.37 12.4395C104.435 13.496 106.175 15.2318 107.591 17.647C108.951 19.998 109.63 22.9979 109.627 26.6467C109.627 31.4679 108.417 35.2616 105.996 38.028C103.521 40.776 100.069 42.1576 95.6421 42.1729C90.8564 42.1729 87.3437 40.5256 85.1041 37.231C82.8613 33.8724 81.74 28.697 81.74 21.7049C81.7255 18.8364 81.9623 15.9722 82.4477 13.1449L80.4256 13.1449C78.0695 13.1449 76.3584 13.8807 75.2922 15.3524C74.1708 16.763 73.6102 19.2332 73.6102 22.7628C73.5543 27.9922 74.7368 33.1609 77.0615 37.8493L66.0732 37.8493C63.7692 32.6587 62.6172 26.865 62.6172 20.4683C62.6172 13.1189 64.0633 7.88395 66.9555 4.76345C69.7926 1.58799 74.6028 0.000258876 81.3861 0.000258579ZM91.8322 13.1449L89.6171 13.1449C89.2638 15.3626 89.0855 17.6045 89.084 19.85C89.084 25.7917 90.7691 28.7626 94.1393 28.7626C97.7362 28.7626 99.5362 26.439 99.5392 21.7919C99.5392 18.9126 98.8606 16.7661 97.5033 15.3524C96.143 13.8837 94.2526 13.1479 91.8322 13.1449Z" fill="white"/>
</g>
</svg>
