<svg width="1175" height="350" viewBox="0 215 1175 350" fill="none" xmlns="http://www.w3.org/2000/svg">
<g opacity="0.5">
<g opacity="0.5" >
<path d="M225.906 414.837L225.906 559.57H158.437L158.437 439.527C158.437 417.082 155.421 401.764 149.39 393.574C143.656 385.069 132.94 380.816 117.242 380.816C100.008 380.816 87.3338 386.738 79.2185 398.583C71.3852 410.112 67.4685 428.013 67.4685 452.284L67.4685 559.688H0L0 218.223H67.445L67.445 359.765H68.3615C84.0282 335.494 109.095 323.358 143.562 323.358C171.01 323.358 191.525 330.792 205.108 345.661C218.973 360.214 225.906 383.273 225.906 414.837Z" fill="#595964"/>
<path d="M479.166 418.476V559.569H416.233V526.351H415.34C409.904 536.967 400.997 545.914 388.621 553.19C376.542 560.184 361.149 563.672 342.443 563.657C317.706 563.657 298.24 557.435 284.046 544.992C269.946 532.266 262.857 514.523 262.778 491.763C262.778 467.161 271.23 449.103 288.135 437.589C305.368 426.059 331.923 420.295 367.8 420.295C382.518 420.22 397.214 421.437 411.721 423.933V413.538C411.721 401.425 407.946 392.629 400.394 387.148C393.156 381.383 380.482 378.5 362.371 378.5C335.539 378.211 309.018 384.29 284.962 396.244V339.754C311.596 327.91 341.362 321.987 374.262 321.987C411.972 321.987 438.832 329.422 454.844 344.29C471.059 358.875 479.166 383.604 479.166 418.476ZM411.721 472.177V460.79C400.342 458.973 388.839 458.057 377.317 458.049C346.814 458.049 331.571 466.712 331.586 484.037C331.586 502.529 343.509 511.782 367.353 511.798C382.143 511.798 393.156 508.309 400.394 501.332C407.946 494.338 411.721 484.62 411.721 472.177V472.177Z" fill="#595964"/>
<path d="M680.867 327.445V384.809H617.041V464.901C617.041 479.454 619.602 489.771 624.725 495.851C629.848 501.93 639.507 504.962 653.701 504.947C663.232 505.112 672.675 503.092 681.313 499.04V555.931C669.845 561.995 653.247 565.027 631.517 565.027C602.252 565.027 581.282 558.656 568.607 545.914C555.917 532.872 549.58 513.302 549.596 487.204V384.809H508.4V327.445H549.596V278.303L617.041 255.552V327.445H680.867Z" fill="#595964"/>
<path d="M784.948 218.223V426.674L861.464 327.445H938.403L852.863 431.683L947.474 559.57H869.619L784.948 440.33V559.57H717.503V218.223H784.948Z" fill="#595964"/>
<path d="M1175 418.476V559.569H1112.07V526.351H1111.17C1105.75 536.967 1096.85 545.914 1084.45 553.19C1072.39 560.184 1057 563.672 1038.28 563.657C1013.54 563.657 994.073 557.435 979.879 544.992C965.779 532.266 958.69 514.523 958.611 491.763C958.611 467.161 967.063 449.103 983.968 437.589C1001.2 426.059 1027.76 420.295 1063.63 420.295C1078.35 420.22 1093.05 421.437 1107.55 423.933V413.538C1107.55 401.425 1103.78 392.629 1096.23 387.148C1088.99 381.383 1076.31 378.5 1058.2 378.5C1031.37 378.213 1004.85 384.292 980.795 396.244V339.754C1007.43 327.91 1037.16 321.987 1069.98 321.987C1107.69 321.987 1134.55 329.422 1150.56 344.29C1166.85 358.875 1175 383.604 1175 418.476ZM1107.55 472.177V460.79C1096.18 458.973 1084.67 458.057 1073.15 458.049C1042.66 458.049 1027.42 466.712 1027.42 484.037C1027.42 502.529 1039.34 511.782 1063.19 511.798C1077.96 511.798 1088.97 508.309 1096.23 501.332C1103.76 494.338 1107.54 484.62 1107.55 472.177Z" fill="#595964"/>
</g>
</g>
</svg>
