<svg width="1512" height="163" viewBox="0 0 1512 163" fill="none" xmlns="http://www.w3.org/2000/svg">
<path opacity="0.3" fill-rule="evenodd" clip-rule="evenodd" d="M1558 163C1458.66 163 1408.07 138.628 1366.08 119.061C1330.53 102.502 1304.89 90.5402 1247.1 90.5402C1189.28 90.5402 1163.64 102.502 1128.12 119.061C1086.09 138.628 1033.83 163 936.168 163C838.51 163 786.242 138.628 744.216 119.061C708.737 102.502 683.061 90.5402 625.27 90.5402C567.48 90.5402 541.803 102.502 506.324 119.061C464.335 138.628 412.031 163 314.372 163C216.714 163 162.728 138.628 120.701 119.061C85.186 102.502 57.5344 90.5402 0 90.5402V0C99.341 0 151.682 24.3376 193.671 43.9391C229.186 60.4638 255.741 72.4252 313.495 72.4252C371.285 72.4252 397.4 60.4638 432.916 43.9391C474.905 24.3376 527.392 0 625.051 0C722.709 0 775.086 24.3376 817.076 43.9391C852.591 60.4638 878.341 72.4252 936.131 72.4252C993.922 72.4252 1019.6 60.4638 1055.11 43.9391C1097.1 24.3376 1149.44 0 1247.1 0C1344.72 0 1397.03 24.3376 1439.02 43.9391C1474.53 60.4638 1500.61 72.4252 1558 72.4252V163Z" fill="#40404D"/>
</svg>
