<svg width="470" height="217" viewBox="0 0 470 217" fill="none" xmlns="http://www.w3.org/2000/svg">
<g opacity="0.5">
<path d="M42.2702 135.841H63.2615C107.545 135.841 132.562 113.393 132.562 67.3448C132.562 18.1313 102.944 0 57.5105 0H0V217H42.2702V135.841ZM42.2702 35.1114H49.7466C73.3259 35.1114 89.4288 39.1406 89.4288 67.057C89.4288 95.2613 75.9139 100.729 50.8968 100.729H42.2702V35.1114Z" fill="#595964"/>
<path d="M163.166 217H223.264C285.088 217 328.221 169.801 328.221 108.788C328.221 46.9111 286.238 0 223.552 0H163.166V217ZM205.436 36.8382H212.337C260.359 36.8382 284.513 61.3011 284.513 108.5C284.513 151.382 264.384 180.162 212.337 180.162H205.436V36.8382Z" fill="#595964"/>
<path d="M470 36.8382V0H366.194V217H408.464V121.451H465.974V84.6127H408.464V36.8382H470Z" fill="#595964"/>
</g>
</svg>
