<svg width="99" height="947" viewBox="0 0 99 947" fill="none" xmlns="http://www.w3.org/2000/svg">
<path opacity="0.5" fill-rule="evenodd" clip-rule="evenodd" d="M0 947C0 886.617 14.8028 855.87 26.687 830.348C36.7444 808.738 44.0093 793.154 44.0093 758.027C44.0093 722.878 36.7444 707.293 26.687 685.706C14.8028 660.161 0 628.391 0 569.031C0 509.672 14.8028 477.902 26.687 452.357C36.7444 430.792 44.0093 415.185 44.0093 380.058C44.0093 344.932 36.7444 329.325 26.687 307.759C14.8028 282.237 0 250.445 0 191.085C0 131.725 14.8028 98.9108 26.687 73.366C36.7444 51.7786 44.0093 34.9711 44.0093 0L99 0C99 60.3825 84.2182 92.1967 72.313 117.719C62.2766 139.307 55.0117 155.447 55.0117 190.552C55.0117 225.678 62.2766 241.552 72.313 263.14C84.2182 288.662 99 320.565 99 379.925C99 439.285 84.2182 471.121 72.313 496.644C62.2766 518.231 55.0117 533.882 55.0117 569.009C55.0117 604.136 62.2766 619.743 72.313 641.33C84.2182 666.853 99 698.667 99 758.027C99 817.364 84.2182 849.156 72.313 874.679C62.2766 896.266 55.0117 912.118 55.0117 947H0Z" fill="#40404D"/>
</svg>
