<svg width="222" height="1788" viewBox="0 0 222 1788" fill="none" xmlns="http://www.w3.org/2000/svg">
<path opacity="0.5" d="M58.508 243.052C32.0987 189.806 4.57124e-06 125.088 6.0629e-06 -2.64732e-06L123.36 -1.17628e-06C123.36 73.6252 139.603 106.878 162.157 152.356C188.853 206.123 222 273.097 222 398.101C222 523.151 188.853 590.173 162.157 643.94C139.603 689.417 123.359 722.295 123.359 796.295C123.359 870.295 139.603 903.267 162.157 948.744C188.853 1002.51 222 1069.58 222 1194.63C222 1319.68 188.853 1386.89 162.157 1440.66C139.603 1486.13 123.359 1519.57 123.359 1593.57C123.359 1667.53 139.603 1701.53 162.157 1747.01C168.47 1759.72 175.145 1773.18 181.657 1788L35.6612 1788C16.5507 1741.17 -1.39799e-05 1680.75 -1.29269e-05 1592.45C-1.14357e-05 1467.4 33.194 1400.42 59.8435 1346.66C82.3966 1301.23 98.6876 1268.35 98.6876 1194.35C98.6876 1120.35 82.3966 1087.47 59.8435 1042.04L59.7785 1041.91C33.1401 988.118 -4.92227e-06 921.197 -3.43227e-06 796.248C-1.94227e-06 671.3 33.1402 604.379 59.7786 550.587L59.8435 550.456L59.8601 550.423C82.4046 504.963 98.6876 472.129 98.6876 398.101C98.6876 324.153 82.4196 291.316 59.8913 245.842L59.8435 245.745L58.508 243.052Z" fill="#40404D"/>
</svg>
