<svg width="819" height="546" viewBox="0 0 819 546" fill="none" xmlns="http://www.w3.org/2000/svg">
<g opacity="0.5">
<path fill-rule="evenodd" clip-rule="evenodd" d="M185.028 527.543C172.569 527.543 165.544 520.765 165.544 508.696V296.612L3.39352 22.6077C-4.42681 9.05184 1.80294 0 16.6041 0H116.413C127.326 0 134.351 4.54778 138.99 13.5559L227.93 178.107L316.781 13.5559C321.42 4.54778 328.445 0 339.358 0H439.167C453.968 0 460.198 9.05184 452.422 22.6077L290.271 296.612V527.062" fill="#40404D"/>
<path fill-rule="evenodd" clip-rule="evenodd" d="M699.812 357.769C699.812 307.154 660.283 273.614 608.933 273.614C557.583 273.614 518.097 307.154 518.097 357.769C518.097 408.384 557.583 441.88 608.933 441.88C660.283 441.88 699.812 408.384 699.812 357.769ZM399.658 357.769C399.658 251.503 492.814 169.45 608.952 169.45C725.091 169.45 818.291 251.503 818.291 357.769C818.291 464.035 725.091 546 608.952 546C492.814 546 399.658 464.035 399.658 357.769Z" fill="#40404D"/>
<path fill-rule="evenodd" clip-rule="evenodd" d="M551.462 73.2531V19.7645C551.462 7.09496 558.415 0 570.782 0H799.235C811.602 0 818.555 7.09496 818.555 19.7645V73.2531C818.555 85.8766 811.602 93.0177 799.235 93.0177H570.782C558.415 93.0177 551.462 85.8766 551.462 73.2531" fill="#40404D"/>
</g>
</svg>
