<svg width="595" height="347" viewBox="0 0 595 347" fill="none" xmlns="http://www.w3.org/2000/svg">
<path fill-rule="evenodd" clip-rule="evenodd" d="M118.242 397C108.866 397 103.579 391.899 103.579 382.817V223.214L-18.4462 17.0133C-24.3314 6.81192 -19.6432 0 -8.50464 0H66.6058C74.8184 0 80.1051 3.42241 83.5963 10.2014L150.527 134.034L217.392 10.2014C220.883 3.42241 226.17 0 234.382 0H309.493C320.632 0 325.32 6.81192 319.468 17.0133L197.442 223.214V396.638" fill="#EEEEEE"/>
<path fill-rule="evenodd" clip-rule="evenodd" d="M505.641 269.237C505.641 231.147 475.893 205.907 437.25 205.907C398.607 205.907 368.892 231.147 368.892 269.237C368.892 307.328 398.607 332.535 437.25 332.535C475.893 332.535 505.641 307.328 505.641 269.237M279.761 269.237C279.761 189.267 349.865 127.519 437.264 127.519C524.664 127.519 594.801 189.267 594.801 269.237C594.801 349.207 524.664 410.89 437.264 410.89C349.865 410.89 279.761 349.207 279.761 269.237" fill="#EEEEEE"/>
<path fill-rule="evenodd" clip-rule="evenodd" d="M394 55.1263V14.8737C394 5.33928 399.233 0 408.539 0H580.461C589.767 0 595 5.33928 595 14.8737V55.1263C595 64.626 589.767 70 580.461 70H408.539C399.233 70 394 64.626 394 55.1263" fill="#EEEEEE"/>
</svg>
