<svg width="870" height="548" viewBox="0 0 870 548" fill="none" xmlns="http://www.w3.org/2000/svg">
<g opacity="0.5">
<path fill-rule="evenodd" clip-rule="evenodd" d="M85.6185 399.964C79.8531 399.964 76.6024 396.836 76.6024 391.266V293.392L1.57029 166.942C-2.04843 160.686 0.83428 156.508 7.68326 156.508H53.8679C58.9177 156.508 62.1684 158.607 64.3151 162.764L105.47 238.703L146.585 162.764C148.731 158.607 151.982 156.508 157.032 156.508H203.217C210.066 156.508 212.948 160.686 209.35 166.942L134.318 293.392V399.742" fill="#40404D"/>
<path fill-rule="evenodd" clip-rule="evenodd" d="M817.273 391.262V234.767C817.273 229.189 820.437 226.066 826.065 226.066H861.209C866.836 226.066 870 229.189 870 234.767V391.262C870 396.819 866.836 399.963 861.209 399.963H826.065C820.437 399.963 817.273 396.819 817.273 391.262Z" fill="#40404D"/>
<path fill-rule="evenodd" clip-rule="evenodd" d="M323.162 321.731C323.162 298.356 304.906 282.867 281.192 282.867C257.478 282.867 239.243 298.356 239.243 321.731C239.243 345.106 257.478 360.575 281.192 360.575C304.906 360.575 323.162 345.106 323.162 321.731ZM184.545 321.731C184.545 272.656 227.566 234.762 281.201 234.762C334.835 234.762 377.876 272.656 377.876 321.731C377.876 370.807 334.835 408.66 281.201 408.66C227.566 408.66 184.545 370.807 184.545 321.731Z" fill="#40404D"/>
<path fill-rule="evenodd" clip-rule="evenodd" d="M430.607 399.964V165.458C430.607 159.741 433.782 156.508 439.392 156.508H474.53C480.159 156.508 483.334 159.741 483.334 165.458V391.075C483.334 396.752 480.159 399.964 474.53 399.964" fill="#40404D"/>
<path fill-rule="evenodd" clip-rule="evenodd" d="M709.569 278.247C709.569 236.503 682.436 210.047 643.175 210.047H593.181V346.407H643.175C682.436 346.407 709.569 319.951 709.569 278.247ZM643.175 156.508C712.06 156.508 764.544 209.36 764.544 278.246C764.544 347.093 712.06 399.964 643.175 399.964H553.921H544.991C539.261 399.964 536.062 396.814 536.062 391.28V165.192C536.062 159.639 539.261 156.508 544.991 156.508" fill="#40404D"/>
<path fill-rule="evenodd" clip-rule="evenodd" d="M817.273 190.745V165.746C817.273 159.824 820.437 156.508 826.065 156.508H861.209C866.836 156.508 870 159.824 870 165.746V190.745C870 196.645 866.836 199.983 861.209 199.983H826.065C820.437 199.983 817.273 196.645 817.273 190.745Z" fill="#40404D"/>
<path fill-rule="evenodd" clip-rule="evenodd" d="M254.834 190.745V165.746C254.834 159.824 258.037 156.508 263.734 156.508H368.964C374.661 156.508 377.864 159.824 377.864 165.746V190.745C377.864 196.645 374.661 199.983 368.964 199.983H263.734C258.037 199.983 254.834 196.645 254.834 190.745Z" fill="#40404D"/>
<mask id="mask0_121_38" style="mask-type:alpha" maskUnits="userSpaceOnUse" x="4" y="457" width="863" height="91">
<path fill-rule="evenodd" clip-rule="evenodd" d="M4.80664 457.585H866.624V547.775H4.80664V457.585Z" fill="white"/>
</mask>
<g mask="url(#mask0_121_38)">
<path fill-rule="evenodd" clip-rule="evenodd" d="M866.624 547.777C811.673 547.777 783.692 534.291 760.465 523.464C740.799 514.301 726.616 507.683 694.649 507.683C662.662 507.683 648.479 514.301 628.833 523.464C605.586 534.291 576.674 547.777 522.654 547.777C468.634 547.777 439.721 534.291 416.474 523.464C396.849 514.301 382.646 507.683 350.679 507.683C318.712 507.683 304.509 514.301 284.883 523.464C261.656 534.291 232.724 547.777 178.704 547.777C124.683 547.777 94.8204 534.291 71.5734 523.464C51.9278 514.301 36.6321 507.683 4.80664 507.683V457.585C59.7577 457.585 88.7102 471.052 111.937 481.898C131.583 491.041 146.271 497.66 178.218 497.66C210.185 497.66 224.631 491.041 244.277 481.898C267.504 471.052 296.537 457.585 350.557 457.585C404.578 457.585 433.551 471.052 456.777 481.898C476.423 491.041 490.667 497.66 522.634 497.66C554.601 497.66 568.804 491.041 588.45 481.898C611.676 471.052 640.629 457.585 694.649 457.585C748.649 457.585 777.582 471.052 800.808 481.898C820.454 491.041 834.88 497.66 866.624 497.66V547.777Z" fill="#40404D"/>
</g>
<path fill-rule="evenodd" clip-rule="evenodd" d="M869.991 95.6434C815.079 95.6434 787.117 81.3425 763.907 69.8613C744.255 60.1448 730.083 53.1262 698.138 53.1262C666.174 53.1262 652.001 60.1448 632.369 69.8613C609.139 81.3425 580.247 95.6434 526.265 95.6434C472.284 95.6434 443.392 81.3425 420.162 69.8613C400.55 60.1448 386.357 53.1262 354.413 53.1262C322.469 53.1262 308.276 60.1448 288.664 69.8613C265.454 81.3425 236.542 95.6434 182.56 95.6434C128.578 95.6434 98.7367 81.3425 75.5063 69.8613C55.8747 60.1448 40.5899 53.1262 8.78711 53.1262V0C63.699 0 92.6309 14.2806 115.841 25.7821C135.473 35.4986 150.151 42.4969 182.075 42.4969C214.019 42.4969 228.455 35.4986 248.087 25.7821C271.297 14.2806 300.31 0 354.292 0C408.273 0 437.226 14.2806 460.436 25.7821C480.067 35.4986 494.301 42.4969 526.245 42.4969C558.19 42.4969 572.383 35.4986 592.014 25.7821C615.224 14.2806 644.156 0 698.138 0C752.1 0 781.012 14.2806 804.222 25.7821C823.853 35.4986 838.208 42.4969 869.991 42.4969V95.6434Z" fill="#40404D"/>
</g>
</svg>
