<svg width="103" height="65" viewBox="0 0 103 65" fill="none" xmlns="http://www.w3.org/2000/svg">
<path fill-rule="evenodd" clip-rule="evenodd" d="M10.1364 47.3522C9.45387 47.3522 9.06902 46.9819 9.06902 46.3225V34.735L0.185908 19.7645C-0.242515 19.0239 0.0987711 18.5293 0.909627 18.5293H6.37746C6.97532 18.5293 7.36017 18.7778 7.61432 19.2699L12.4867 28.2604L17.3543 19.2699C17.6084 18.7778 17.9933 18.5293 18.5911 18.5293H24.059C24.8698 18.5293 25.2111 19.0239 24.7851 19.7645L15.902 34.735V47.3259" fill="#D2D2D2"/>
<path fill-rule="evenodd" clip-rule="evenodd" d="M96.7578 46.3223V27.7948C96.7578 27.1344 97.1324 26.7646 97.7986 26.7646H101.959C102.626 26.7646 103 27.1344 103 27.7948V46.3223C103 46.9803 102.626 47.3525 101.959 47.3525H97.7986C97.1324 47.3525 96.7578 46.9803 96.7578 46.3223Z" fill="#D2D2D2"/>
<path fill-rule="evenodd" clip-rule="evenodd" d="M38.2596 38.0903C38.2596 35.3229 36.0983 33.4891 33.2908 33.4891C30.4832 33.4891 28.3243 35.3229 28.3243 38.0903C28.3243 40.8577 30.4832 42.689 33.2908 42.689C36.0983 42.689 38.2596 40.8577 38.2596 38.0903ZM21.8486 38.0902C21.8486 32.2802 26.9419 27.7939 33.2918 27.7939C39.6416 27.7939 44.7373 32.2802 44.7373 38.0902C44.7373 43.9003 39.6416 48.3818 33.2918 48.3818C26.9419 48.3818 21.8486 43.9003 21.8486 38.0902Z" fill="#D2D2D2"/>
<path fill-rule="evenodd" clip-rule="evenodd" d="M50.98 47.3522V19.5888C50.98 18.912 51.3559 18.5293 52.02 18.5293H56.18C56.8465 18.5293 57.2223 18.912 57.2223 19.5888V46.2999C57.2223 46.9719 56.8465 47.3522 56.18 47.3522" fill="#D2D2D2"/>
<path fill-rule="evenodd" clip-rule="evenodd" d="M84.0065 32.9419C84.0065 27.9998 80.7942 24.8677 76.146 24.8677H70.2273V41.0114H76.146C80.7942 41.0114 84.0065 37.8792 84.0065 32.9419ZM76.1461 18.5293C84.3015 18.5293 90.5151 24.7864 90.5151 32.942C90.5151 41.0927 84.3015 47.3522 76.1461 47.3522H65.5792H64.522C63.8436 47.3522 63.4648 46.9792 63.4648 46.3241V19.5574C63.4648 18.8999 63.8436 18.5293 64.522 18.5293" fill="#D2D2D2"/>
<path fill-rule="evenodd" clip-rule="evenodd" d="M96.7578 22.5826V19.6229C96.7578 18.9219 97.1324 18.5293 97.7986 18.5293H101.959C102.626 18.5293 103 18.9219 103 19.6229V22.5826C103 23.2811 102.626 23.6762 101.959 23.6762H97.7986C97.1324 23.6762 96.7578 23.2811 96.7578 22.5826Z" fill="#D2D2D2"/>
<path fill-rule="evenodd" clip-rule="evenodd" d="M30.1699 22.5826V19.6229C30.1699 18.9219 30.5491 18.5293 31.2235 18.5293H43.6818C44.3562 18.5293 44.7354 18.9219 44.7354 19.6229V22.5826C44.7354 23.2811 44.3562 23.6762 43.6818 23.6762H31.2235C30.5491 23.6762 30.1699 23.2811 30.1699 22.5826Z" fill="#D2D2D2"/>
<mask id="mask0_328_9601" style="mask-type:alpha" maskUnits="userSpaceOnUse" x="0" y="54" width="103" height="11">
<path fill-rule="evenodd" clip-rule="evenodd" d="M0.569336 54.1738H102.601V64.8515H0.569336V54.1738Z" fill="white"/>
</mask>
<g mask="url(#mask0_328_9601)">
<path fill-rule="evenodd" clip-rule="evenodd" d="M102.601 64.8517C96.0949 64.8517 92.7822 63.2551 90.0323 61.9733C87.7041 60.8885 86.0249 60.105 82.2403 60.105C78.4533 60.105 76.7742 60.8885 74.4483 61.9733C71.6961 63.2551 68.2732 64.8517 61.8777 64.8517C55.4822 64.8517 52.0592 63.2551 49.307 61.9733C46.9835 60.8885 45.302 60.105 41.5174 60.105C37.7328 60.105 36.0513 60.8885 33.7278 61.9733C30.978 63.2551 27.5527 64.8517 21.1572 64.8517C14.7616 64.8517 11.2261 63.2551 8.47391 61.9733C6.14805 60.8885 4.33718 60.105 0.569336 60.105V54.1738C7.07504 54.1738 10.5027 55.7681 13.2526 57.0522C15.5784 58.1347 17.3174 58.9183 21.0997 58.9183C24.8843 58.9183 26.5945 58.1347 28.9204 57.0522C31.6702 55.7681 35.1075 54.1738 41.503 54.1738C47.8986 54.1738 51.3287 55.7681 54.0785 57.0522C56.4044 58.1347 58.0907 58.9183 61.8753 58.9183C65.6599 58.9183 67.3414 58.1347 69.6673 57.0522C72.4171 55.7681 75.8448 54.1738 82.2403 54.1738C88.6334 54.1738 92.0588 55.7681 94.8086 57.0522C97.1345 58.1347 98.8423 58.9183 102.601 58.9183V64.8517Z" fill="#D2D2D2"/>
</g>
<path fill-rule="evenodd" clip-rule="evenodd" d="M102.999 11.3233C96.4975 11.3233 93.1872 9.63021 90.4393 8.27093C88.1127 7.12059 86.4348 6.28965 82.6528 6.28965C78.8685 6.28965 77.1906 7.12059 74.8664 8.27093C72.1161 9.63021 68.6957 11.3233 62.3047 11.3233C55.9137 11.3233 52.4933 9.63021 49.743 8.27093C47.4212 7.12059 45.7409 6.28965 41.9589 6.28965C38.177 6.28965 36.4967 7.12059 34.1749 8.27093C31.427 9.63021 28.0041 11.3233 21.6132 11.3233C15.2222 11.3233 11.6892 9.63021 8.93898 8.27093C6.61478 7.12059 4.8052 6.28965 1.04004 6.28965V0C7.54111 0 10.9664 1.69069 13.7142 3.05237C16.0384 4.20271 17.7762 5.03124 21.5557 5.03124C25.3377 5.03124 27.0467 4.20271 29.3709 3.05237C32.1188 1.69069 35.5536 0 41.9446 0C48.3355 0 51.7632 1.69069 54.5111 3.05237C56.8353 4.20271 58.5204 5.03124 62.3023 5.03124C66.0842 5.03124 67.7645 4.20271 70.0887 3.05237C72.8366 1.69069 76.2619 0 82.6528 0C89.0414 0 92.4643 1.69069 95.2122 3.05237C97.5364 4.20271 99.2358 5.03124 102.999 5.03124V11.3233Z" fill="#D2D2D2"/>
</svg>
