<svg width="149" height="442" viewBox="0 0 149 442" fill="none" xmlns="http://www.w3.org/2000/svg">
<path fill-rule="evenodd" clip-rule="evenodd" d="M2.32337e-06 -121C1.30526e-06 -35.6229 22.2789 7.85159 40.1652 43.9388C55.3022 74.4935 66.2363 96.5293 66.2363 146.196C66.2363 195.895 55.3022 217.931 40.1652 248.454C22.2789 284.573 -3.04871e-06 329.493 -4.04958e-06 413.424C-5.05044e-06 497.355 22.2789 542.276 40.1652 578.395C55.3022 608.886 66.2363 630.954 66.2363 680.621C66.2363 730.288 55.3022 752.355 40.1652 782.847C22.2789 818.934 -9.42128e-06 863.886 -1.04221e-05 947.817C-1.1423e-05 1031.75 22.2789 1078.15 40.1652 1114.26C55.3022 1144.79 66.2363 1168.55 66.2363 1218L149 1218C149 1132.62 126.753 1087.64 108.835 1051.55C93.6978 1021.03 82.7953 998.207 82.7953 948.572C82.7953 898.905 93.6978 876.46 108.835 845.937C126.753 809.85 149 764.741 149 680.809C149 596.878 126.753 551.864 108.835 515.776C93.6978 485.253 82.7953 463.123 82.7953 413.456C82.7953 363.789 93.6978 341.721 108.835 311.198C126.753 275.111 149 230.128 149 146.196C149 62.2968 126.753 17.345 108.835 -18.7423C93.6978 -49.2655 82.7953 -71.5844 82.7953 -121L2.32337e-06 -121Z" fill="#EEEEEE"/>
</svg>
